<svg xmlns="http://www.w3.org/2000/svg" xmlns:xlink="http://www.w3.org/1999/xlink" version="1.1" x="0px" y="0px" viewBox="0 0 30 37.5" xml:space="preserve"><g transform="translate(-570 -380)"><g xmlns="http://www.w3.org/2000/svg" xmlns:xlink="http://www.w3.org/1999/xlink"><path d="M596.029,392.029c0.505,0,1.042,0.043,1.635,0.116C596.362,386.341,591.196,382,585,382c-7.18,0-13,5.82-13,13    c0,6.195,4.342,11.362,10.145,12.664c-0.072-0.593-0.115-1.131-0.115-1.635C582.029,398.31,588.31,392.029,596.029,392.029z"/><path d="M583.029,406.029c0,0.621,0.059,1.229,0.143,1.828l14.685-14.685c-0.6-0.084-1.206-0.143-1.828-0.143    C588.85,393.029,583.029,398.85,583.029,406.029z"/></g></g><text x="0" y="45" fill="#000000" font-size="5px" font-weight="bold" font-family="'Helvetica Neue', Helvetica, Arial-Unicode, Arial, Sans-serif">Created by Hea Poh Lin</text><text x="0" y="50" fill="#000000" font-size="5px" font-weight="bold" font-family="'Helvetica Neue', Helvetica, Arial-Unicode, Arial, Sans-serif">from the Noun Project</text></svg>